HIERARCHY
ROOT Pelvis
{
	OFFSET 0.000000 0.000000 0.000000
	CHANNELS 6 Xposition Yposition Zposition Zrotation Yrotation Xrotation 
	JOINT Left_hip
	{
		OFFSET 0.069463 -0.088608 -0.009542
		CHANNELS 3 Zrotation Yrotation Xrotation
		JOINT Left_knee
		{
			OFFSET 0.030639 -0.359740 -0.005288
			CHANNELS 3 Zrotation Yrotation Xrotation
			JOINT Left_ankle
			{
				OFFSET -0.011068 -0.376034 -0.042462
				CHANNELS 3 Zrotation Yrotation Xrotation
				JOINT Left_foot
				{
					OFFSET 0.023192 -0.053321 0.111332
					CHANNELS 3 Zrotation Yrotation Xrotation
					End Site
					{
						OFFSET 0.000000 0.000000 0.000000
					}
				}
			}
		}
	}
	JOINT Right_hip
	{
		OFFSET -0.067438 -0.088025 -0.006263
		CHANNELS 3 Zrotation Yrotation Xrotation
		JOINT Right_knee
		{
			OFFSET -0.035962 -0.366229 -0.008063
			CHANNELS 3 Zrotation Yrotation Xrotation
			JOINT Right_ankle
			{
				OFFSET 0.013608 -0.375719 -0.040481
				CHANNELS 3 Zrotation Yrotation Xrotation
				JOINT Right_foot
				{
					OFFSET -0.021034 -0.045527 0.114617
					CHANNELS 3 Zrotation Yrotation Xrotation
					End Site
					{
						OFFSET 0.000000 0.000000 0.000000
					}
				}
			}
		}
	}
	JOINT Spine1
	{
		OFFSET -0.002610 0.101823 -0.019986
		CHANNELS 3 Zrotation Yrotation Xrotation
		JOINT Spine2
		{
			OFFSET 0.004114 0.128714 -0.000938
			CHANNELS 3 Zrotation Yrotation Xrotation
			JOINT Spine3
			{
				OFFSET 0.002191 0.048470 0.027684
				CHANNELS 3 Zrotation Yrotation Xrotation
				JOINT Neck
				{
					OFFSET -0.002856 0.198873 -0.044022
					CHANNELS 3 Zrotation Yrotation Xrotation
					JOINT Head
					{
						OFFSET 0.002981 0.062960 0.049860
						CHANNELS 3 Zrotation Yrotation Xrotation
						End Site
						{
							OFFSET 0.000000 0.000000 0.000000
						}
					}
				}
				JOINT Left_collar
				{
					OFFSET 0.073708 0.112550 -0.033440
					CHANNELS 3 Zrotation Yrotation Xrotation
					JOINT Left_shoulder
					{
						OFFSET 0.083291 0.030786 -0.008013
						CHANNELS 3 Zrotation Yrotation Xrotation
						JOINT Left_elbow
						{
							OFFSET 0.245601 -0.011792 -0.027873
							CHANNELS 3 Zrotation Yrotation Xrotation
							JOINT Left_wrist
							{
								OFFSET 0.232258 0.008622 -0.000487
								CHANNELS 3 Zrotation Yrotation Xrotation
								JOINT Left_palm
								{
									OFFSET 0.077300 -0.009457 -0.012851
									CHANNELS 3 Zrotation Yrotation Xrotation
									End Site
									{
										OFFSET 0.000000 0.000000 0.000000
									}
								}
							}
						}
					}
				}
				JOINT Right_collar
				{
					OFFSET -0.075339 0.110574 -0.037874
					CHANNELS 3 Zrotation Yrotation Xrotation
					JOINT Right_shoulder
					{
						OFFSET -0.086522 0.031207 -0.009986
						CHANNELS 3 Zrotation Yrotation Xrotation
						JOINT Right_elbow
						{
							OFFSET -0.237313 -0.011478 -0.019859
							CHANNELS 3 Zrotation Yrotation Xrotation
							JOINT Right_wrist
							{
								OFFSET -0.237599 0.007976 -0.003742
								CHANNELS 3 Zrotation Yrotation Xrotation
								JOINT Right_palm
								{
									OFFSET -0.076920 -0.006943 -0.009920
									CHANNELS 3 Zrotation Yrotation Xrotation
									End Site
									{
										OFFSET 0.000000 0.000000 0.000000
									}
								}
							}
						}
					}
				}
			}
		}
	}
}
MOTION
Frames: 5
Frame Time: 0.100000
0.000000 0.000000 0.000000 177.297669 24.024710 -25.824446 3.737198 5.308178 16.843509 0.920002 -10.397226 -0.090857 5.772448 5.913066 -5.739534 -11.068918 9.543038 -1.519633 -3.615407 -6.814522 20.401996 -1.347532 -1.973464 -0.942437 -8.921025 -8.629936 -7.884753 15.938362 -5.754144 10.701874 0.500461 1.252967 7.265024 0.671825 -4.010746 7.291712 -0.040817 -2.689164 -1.259699 0.148070 -15.940949 11.343503 -0.053220 -16.852525 2.174934 -31.827255 -0.484548 7.466482 -50.003366 -7.450922 7.933176 1.278717 -18.075669 17.410088 -13.644857 4.227245 -0.592391 -7.320370 -2.976107 -9.008225 32.944500 6.336737 5.251247 51.566669 3.816725 10.078416 -6.450707 11.412901 -0.868510 8.535158 -4.418393 0.500626 10.047793 8.545982 -3.396220 
-0.000038 0.000376 -0.001813 177.217928 23.989229 -25.998069 3.716132 5.265747 16.631730 0.903281 -10.392705 0.346651 5.925291 5.958947 -5.846086 -11.250149 9.645473 -1.494190 -3.584581 -6.832337 20.239661 -1.350910 -2.008493 -0.617723 -9.043039 -8.555413 -7.926426 16.133008 -5.878425 10.734283 0.499743 1.260736 7.656440 0.693244 -4.033790 7.352950 -0.017174 -2.684009 -1.272606 0.344371 -16.264121 11.339969 0.216869 -17.094544 2.092438 -31.884204 -0.658840 7.517446 -49.977984 -7.541245 7.901616 1.316487 -18.128733 17.243825 -13.676900 4.264965 -0.655561 -7.262267 -2.949974 -8.962961 32.899670 6.567875 5.297066 51.556861 3.901624 10.051239 -6.446936 11.493378 -0.882468 8.547572 -4.434017 0.501661 9.982378 8.552989 -3.352235 
-0.000779 0.000571 -0.002907 177.291130 23.494478 -26.091942 3.706974 5.326673 16.738664 0.883501 -10.253590 0.514672 6.031203 6.125492 -5.926036 -11.265453 9.721557 -1.515176 -3.641015 -6.698254 20.387655 -1.352375 -1.695394 -0.760160 -8.933128 -8.428853 -7.899674 16.022665 -5.788415 10.714047 0.484923 1.291886 7.538079 0.728793 -4.020284 7.527412 -0.045775 -2.670228 -1.174902 0.372127 -16.374206 11.752038 0.159941 -17.178051 2.430229 -31.898482 -0.599541 7.558901 -49.962651 -7.583127 7.872340 1.374136 -18.181321 17.087762 -13.651354 4.330104 -0.730540 -7.339567 -2.972137 -8.959364 32.921498 6.527709 5.325097 51.513110 3.957864 10.076555 -6.471907 11.602430 -0.949355 8.511560 -4.492883 0.509057 10.086017 8.584550 -3.415237 
-0.003764 0.000657 -0.004815 177.361155 22.293720 -25.864768 3.672959 5.359531 16.238313 0.741173 -9.624027 1.427873 6.165918 6.666278 -6.325869 -11.079827 9.629616 -1.591083 -3.794812 -6.426788 20.164377 -1.200235 -0.999281 -1.052601 -8.419016 -7.696128 -7.850934 15.545236 -5.844621 10.587481 0.712176 1.196627 7.504969 0.927158 -4.056202 7.311324 0.020512 -2.658425 -1.080292 0.340836 -16.509171 11.900118 0.005155 -17.190245 2.823775 -31.680758 -0.070963 7.527641 -50.441340 -7.261281 7.932257 1.561769 -18.885886 17.022243 -13.495290 4.085986 -1.172303 -7.449100 -2.912650 -8.825103 32.669456 6.275021 5.181502 51.308706 4.128917 10.097320 -6.407332 11.689109 -0.935424 8.322819 -4.448374 0.474473 10.204733 8.562451 -3.528789 
-0.009744 0.000869 -0.006082 177.440195 20.359707 -25.696113 3.601614 5.683373 16.226390 0.717462 -8.857707 2.003400 6.472626 7.425897 -6.993920 -11.067825 9.536756 -1.384502 -3.943309 -6.045586 19.832135 -1.165836 -0.298150 -1.054747 -7.921439 -6.815663 -7.832584 15.308186 -6.123716 10.367067 0.896247 0.945944 7.694766 1.293063 -4.195084 7.258207 0.231184 -2.728422 -0.913265 0.699085 -16.957954 11.506597 0.247774 -17.377056 2.409895 -31.407928 0.616408 7.586544 -50.839031 -6.585914 7.995396 1.609392 -20.199825 17.311224 -13.228359 3.752433 -1.611476 -7.572776 -2.827474 -8.798955 32.349730 5.965740 4.867523 50.988957 4.223099 9.990256 -6.482725 12.201999 -1.092632 8.099174 -4.388181 0.284837 10.318515 8.537315 -3.699963 
